/* XPM */
static char *result[] = {
/* columns rows colors chars-per-pixel */
"50 50 2 1 ",
"  c #2BD403",
". c #75FF54",
/* pixels */
"                                                  ",
"                                                  ",
"                                                  ",
"                ..................                ",
"                ..................                ",
"                ..................                ",
"         .......                  .......         ",
"         .......                  .......         ",
"         .......                  .......         ",
".........                                .........",
".........                                .........",
".........                                .........",
"                                                  ",
"                                                  ",
"                                                  ",
"                                                  ",
"                                                  ",
"                                                  ",
"                                                  ",
"                ..................                ",
"                ..................                ",
"                ..................                ",
"         ................................         ",
"         ................................         ",
"         ................................         ",
"................                  ................",
"................                  ................",
"................                  ................",
".........                                .........",
".........                                .........",
".........                                .........",
"                                                  ",
"                                                  ",
"                                                  ",
"                                                  ",
"                                                  ",
"                                                  ",
"                                                  ",
"                                                  ",
"                                                  ",
"                                                  ",
"                                                  ",
"                                                  ",
"                                                  ",
"                                                  ",
"                                                  ",
"                                                  ",
"                                                  ",
"                                                  ",
"                                                  "
};
