/* XPM */
static char *result[] = {
/* columns rows colors chars-per-pixel */
"50 50 2 1",
"  c #4efb79",
"a c #008922",
"                                                  ",
"                                                  ",
"                                                  ",
"                                                  ",
"                                                  ",
"                                                  ",
"                                                  ",
"                                                  ",
"                                                  ",
"                                                  ",
"                                                  ",
"                                                  ",
"                                                  ",
"                                                  ",
"            aaaaa                                 ",
"         aaaaaaaaaaa                              ",
"         aaaaa  aaaaaa                            ",
"         aa       aaaaaa              aa          ",
"                    aaaaaaaaaaaaaaaaaaaa          ",
"                      aaaaaaaaaaaaaaaaaa          ",
"                                                  ",
"                                                  ",
"                                                  ",
"                                                  ",
"                                                  ",
"                                                  ",
"                                                  ",
"                                                  ",
"                                                  ",
"             aaaaaaaaaa                           ",
"          aaaaaaaaaaaaaaaaaa                      ",
"         aaaaa        aaaaaaaaaa                  ",
"         aa               aaaaaaaaaa    aaaaa     ",
"                              aaaaaaaaaaaaaaa     ",
"                                   aaaaaa         ",
"                                                  ",
"                                                  ",
"                                                  ",
"                                                  ",
"                                                  ",
"                                                  ",
"                                                  ",
"                                                  ",
"                                                  ",
"                                                  ",
"                                                  ",
"                                                  ",
"                                                  ",
"                                                  ",
"                                                  "
};