/* XPM */
static char *result[] = {
/* columns rows colors chars-per-pixel */
"50 50 2 1 ",
"  c #B0664D",
". c #B96E54",
/* pixels */
"..................................................",
"..................................................",
"..................................................",
"................                  ................",
"................                  ................",
"................                  ................",
".........       ..................       .........",
".........       ..................       .........",
".........       ..................       .........",
"         ................................         ",
"         ................................         ",
"         ................................         ",
"..................................................",
"..................................................",
"..................................................",
"..................................................",
"..................................................",
"..................................................",
"..................................................",
"................                  ................",
"................                  ................",
"................                  ................",
".........                                .........",
".........                                .........",
".........                                .........",
"                ..................                ",
"                ..................                ",
"                ..................                ",
"         ................................         ",
"         ................................         ",
"         ................................         ",
"..................................................",
"..................................................",
"..................................................",
"..................................................",
"..................................................",
"..................................................",
"..................................................",
"..................................................",
"..................................................",
"..................................................",
"..................................................",
"..................................................",
"..................................................",
"..................................................",
"..................................................",
"..................................................",
"..................................................",
"..................................................",
".................................................."
};
