/* XPM */
static char *result[] = {
/* columns rows colors chars-per-pixel */
"50 50 2 1 ",
"  c #00AED4",
". c #00E9FF",
/* pixels */
"..................................................",
"..................................................",
"..................................................",
"................                  ................",
"................                  ................",
"................                  ................",
".........       ..................       .........",
".........       ..................       .........",
".........       ..................       .........",
"         ................................         ",
"         ................................         ",
"         ................................         ",
"..................................................",
"..................................................",
"..................................................",
"..................................................",
"..................................................",
"..................................................",
"..................................................",
"................                  ................",
"................                  ................",
"................                  ................",
".........                                .........",
".........                                .........",
".........                                .........",
"                ..................                ",
"                ..................                ",
"                ..................                ",
"         ................................         ",
"         ................................         ",
"         ................................         ",
"..................................................",
"..................................................",
"..................................................",
"..................................................",
"..................................................",
"..................................................",
"..................................................",
"..................................................",
"..................................................",
"..................................................",
"..................................................",
"..................................................",
"..................................................",
"..................................................",
"..................................................",
"..................................................",
"..................................................",
"..................................................",
".................................................."
};
