/* XPM */
static char *result[] = {
/* columns rows colors chars-per-pixel */
"50 50 157 2 ",
"   c black",
".  c #010000",
"X  c #010101",
"o  c #020000",
"O  c gray1",
"+  c #090101",
"@  c #0A0101",
"#  c #0E0101",
"$  c gray3",
"%  c gray4",
"&  c gray5",
"*  c gray6",
"=  c #100202",
"-  c #130202",
";  c #170202",
":  c #190202",
">  c #180303",
",  c #190303",
"<  c #1C0303",
"1  c #1D0303",
"2  c #101010",
"3  c #161616",
"4  c #1B1B1B",
"5  c #1E1E1E",
"6  c gray12",
"7  c #200303",
"8  c #210303",
"9  c #220404",
"0  c #260404",
"q  c #280404",
"w  c #2D0505",
"e  c #3E0707",
"r  c #202020",
"t  c gray13",
"y  c gray14",
"u  c #252525",
"i  c gray15",
"p  c #272727",
"a  c gray17",
"s  c #353535",
"d  c #373737",
"f  c #393939",
"g  c #3A3A3A",
"h  c gray23",
"j  c #3C3C3C",
"k  c #3F3F3F",
"l  c #4D0808",
"z  c #4E0808",
"x  c #520808",
"c  c #520909",
"v  c #5C0A0A",
"b  c #5F0A0A",
"n  c #620A0A",
"m  c #650B0B",
"M  c #670B0B",
"N  c #6E0C0C",
"B  c #6F0C0C",
"V  c #750C0C",
"C  c gray28",
"Z  c #4B4B4B",
"A  c #585858",
"S  c gray36",
"D  c #5D5D5D",
"F  c #626262",
"G  c #646464",
"H  c #656565",
"J  c #676767",
"K  c DimGray",
"L  c #6F6F6F",
"P  c gray44",
"I  c #777777",
"U  c gray47",
"Y  c #797979",
"T  c #7B7B7B",
"R  c #7C7C7C",
"E  c #800E0E",
"W  c #870F0F",
"Q  c #890F0F",
"!  c #951010",
"~  c #981111",
"^  c #9B1111",
"/  c #9E1111",
"(  c #A91212",
")  c #B31313",
"_  c #B11414",
"`  c #B81515",
"'  c #C01515",
"]  c #C41515",
"[  c #C81616",
"{  c #C91616",
"}  c #D51717",
"|  c #DE1818",
" . c #DF1818",
".. c #DF1919",
"X. c #E21818",
"o. c #E31818",
"O. c #E31919",
"+. c #E71919",
"@. c #E81919",
"#. c #E91919",
"$. c #ED1A1A",
"%. c #EE1A1A",
"&. c #EF1A1A",
"*. c #F51B1B",
"=. c #F61B1B",
"-. c #F71B1B",
";. c #FA1B1B",
":. c #FB1B1B",
">. c #FC1B1B",
",. c #FD1B1B",
"<. c #FB1C1C",
"1. c #FC1C1C",
"2. c #FD1C1C",
"3. c #FE1C1C",
"4. c #FF1C1C",
"5. c #808080",
"6. c gray52",
"7. c #888888",
"8. c #909090",
"9. c #929292",
"0. c #939393",
"q. c gray61",
"w. c gray62",
"e. c #A4A4A4",
"r. c #AAAAAA",
"t. c #B1B1B1",
"y. c #B7B7B7",
"u. c gray72",
"i. c gray",
"p. c #C1C1C1",
"a. c #C3C3C3",
"s. c #C5C5C5",
"d. c #CECECE",
"f. c gray81",
"g. c #D2D2D2",
"h. c gainsboro",
"j. c gray87",
"k. c #DFDFDF",
"l. c gray89",
"z. c #E6E6E6",
"x. c #E7E7E7",
"c. c #E9E9E9",
"v. c gray92",
"b. c #ECECEC",
"n. c gray93",
"m. c #EFEFEF",
"M. c gray94",
"N. c #F4F4F4",
"B. c #F6F6F6",
"V. c gray97",
"C. c gray98",
"Z. c #FBFBFB",
"A. c gray99",
"S. c #FDFDFD",
"D. c #FEFEFE",
"F. c white",
"G. c None",
/* pixels */
"G.G.G.G.G.G.G.G.G.G.G.G.G.G.G.G.G.G.G.G.G.G.G.G.G.G.G.G.G.G.G.G.G.G.G.G.G.G.G.G.G.G.G.G.G.G.G.G.G.G.",
"G.G.G.G.G.G.G.G.G.G.G.G.G.G.G.G.G.G.G.G.G.G.G.G.G.G.G.G.G.G.G.G.G.G.G.G.G.G.G.G.G.G.G.G.G.G.G.G.G.G.",
"G.G.G.G.G.G.G.G.G.G.G.G.G.G.G.G.G.G.G.G.G.G.G.G.G.G.G.G.G.G.G.G.G.G.G.G.G.G.G.G.G.G.G.G.G.G.G.G.G.G.",
"G.G.G.G.G.G.G.G.G.G.G.G.G.G.G.G.G.G.G.G.G.G.G.G.G.G.G.G.G.G.G.G.G.G.G.G.G.G.G.G.G.G.G.G.G.G.G.G.G.G.",
"G.G.G.G.G.G.G.G.G.G.G.G.G.G.G.G.G.G.G.G.G.G.G.G.G.G.G.G.G.G.G.G.G.G.G.G.G.G.G.G.G.G.G.G.G.G.G.G.G.G.",
"G.G.G.G.G.G.G.G.G.G.G.G.G.G.G.G.G.G.G.G.G.G.G.G.G.G.G.G.G.G.G.G.G.G.G.G.G.G.G.G.G.G.G.G.G.G.G.G.G.G.",
"G.G.G.G.G.G.G.G.G.G.G.G.G.G.G.G.G.G.G.G.G.G.G.G.G.G.G.G.G.G.G.G.G.G.G.G.G.G.G.G.G.G.G.G.G.G.G.G.G.G.",
"G.G.G.G.G.G.G.G.G.G.G.G.G.G.G.G.G.G.G.G.G.G.G.G.G.G.G.G.G.G.G.G.G.G.G.G.G.G.G.G.G.G.G.G.G.G.G.G.G.G.",
"G.G.G.G.G.G.G.G.G.G.G.G.G.G.G.G.G.G.G.G.G.G.G.G.G.G.G.G.G.G.G.G.G.G.G.G.G.G.G.G.G.G.G.G.G.G.G.G.G.G.",
"G.G.G.G.G.G.G.G.G.G.G.G.G.G.G.G.G.G.G.G.G.G.G.G.G.  G.G.G.G.G.G.G.G.G.G.G.G.G.G.G.G.G.G.G.G.G.G.G.G.",
"G.G.G.G.G.G.G.G.G.G.G.G.G.G.G.G.G.G.G.G.                      G.G.G.G.G.G.G.G.G.G.G.G.G.G.G.G.G.G.G.",
"G.G.G.G.G.G.G.G.G.G.G.G.G.G.G.G.G.G.          @ 9 w 0 +           G.G.G.G.G.G.G.G.G.G.G.G.G.G.G.G.G.",
"G.G.G.G.G.G.G.G.G.G.G.G.G.G.G.G.        , V ) ,.4.4.4.<.' M 1         G.G.G.G.G.G.G.G.G.G.G.G.G.G.G.",
"G.G.G.G.G.G.G.G.G.G.G.G.G.G.G.      = ( >.4.4.4.4.4.4.4.4.<.+.~ <       G.G.G.G.G.G.G.G.G.G.G.G.G.G.",
"G.G.G.G.G.G.G.G.G.G.G.G.G.G.      c o.4.4.4.4.4.4.4.4.4.4.4.2.+.] b       G.G.G.G.G.G.G.G.G.G.G.G.G.",
"G.G.G.G.G.G.G.G.G.G.G.G.G.      v *.4.4.4.4.4.4.4.4.4.4.4.4.4.1.O.| m     G.G.G.G.G.G.G.G.G.G.G.G.G.",
"G.G.G.G.G.G.G.G.G.G.G.G.G.    e 4.4.4.4.4.4.4.4.4.4.4.4.4.4.4.4.=. .| l     G.G.G.G.G.G.G.G.G.G.G.G.",
"G.G.G.G.G.G.G.G.G.G.G.G.    7 @.4.4.4.4.4.4.4.4.4.4.4.4.4.4.4.4.4.#. .} q     G.G.G.G.G.G.G.G.G.G.G.",
"G.G.G.G.G.G.G.G.G.G.G.G.    ^ 4.4.4.4.4.4.4.4.4.4.4.4.4.4.4.4.4.4.-. . ./     G.G.G.G.G.G.G.G.G.G.G.",
"G.G.G.G.G.G.G.G.G.G.G.    : 3.4.4.4.4.4.4.4.4.&._ ^ ` %.4.4.4.4.4.4.X. .| 8     G.G.G.G.G.G.G.G.G.G.",
"G.G.G.G.G.G.G.G.G.G.G.    E 4.4.4.4.4.4.4.4.Q #       ; ! 4.4.4.4.4.$. . .W     G.G.G.G.G.G.G.G.G.G.",
"G.G.G.G.G.G.G.G.G.G.G.    { 4.4.4.4.4.4.4.Q     k J s   . / 4.4.4.4.*. . .[     G.G.G.G.G.G.G.G.G.G.",
"G.G.G.G.G.G.G.G.G.G.G.  o :.4.4.4.4.4.4...-   0.F.F.F.7.  > &.4.4.4.;. . .| -   G.G.G.G.G.G.G.G.G.G.",
"G.G.G.G.G.G.G.G.G.G.    @ B B B B B B B x   f F.F.F.F.D.y   z B B B N n n n =     G.G.G.G.G.G.G.G.G.",
"G.G.G.G.G.G.G.G.G.G.                        S F.F.F.F.D.Z                         G.G.G.G.G.G.G.G.G.",
"G.G.G.G.G.G.G.G.G.G.    4 P P P P P P P C   d F.F.F.F.D.p   A P P P L F F F X     G.G.G.G.G.G.G.G.G.",
"G.G.G.G.G.G.G.G.G.G.G.  6 F.F.F.F.F.F.F.n.*   9.F.F.F.5.  t b.F.F.F.C.k.k.d.    G.G.G.G.G.G.G.G.G.G.",
"G.G.G.G.G.G.G.G.G.G.G.  O M.F.F.F.F.F.F.F.8.X   j H h   X w.F.F.F.F.B.k.k.e.    G.G.G.G.G.G.G.G.G.G.",
"G.G.G.G.G.G.G.G.G.G.G.    t.F.F.F.F.F.F.F.F.6.2       2 8.F.F.F.F.F.v.k.j.D     G.G.G.G.G.G.G.G.G.G.",
"G.G.G.G.G.G.G.G.G.G.G.    h F.F.F.F.F.F.F.F.F.c.y.q.y.m.F.F.F.F.F.F.l.k.g.$     G.G.G.G.G.G.G.G.G.G.",
"G.G.G.G.G.G.G.G.G.G.G.G.    i.F.F.F.F.F.F.F.F.F.F.F.F.F.F.F.F.F.F.V.k.k.Y     G.G.G.G.G.G.G.G.G.G.G.",
"G.G.G.G.G.G.G.G.G.G.G.G.    g D.F.F.F.F.F.F.F.F.F.F.F.F.F.F.F.F.F.v.k.a.3     G.G.G.G.G.G.G.G.G.G.G.",
"G.G.G.G.G.G.G.G.G.G.G.G.G.    K D.F.F.F.F.F.F.F.F.F.F.F.F.F.F.F.N.k.h.y     G.G.G.G.G.G.G.G.G.G.G.G.",
"G.G.G.G.G.G.G.G.G.G.G.G.G.      R D.F.F.F.F.F.F.F.F.F.F.F.F.F.Z.l.f.h       G.G.G.G.G.G.G.G.G.G.G.G.",
"G.G.G.G.G.G.G.G.G.G.G.G.G.G.      I x.F.F.F.F.F.F.F.F.F.F.F.S.z.p.f       G.G.G.G.G.G.G.G.G.G.G.G.G.",
"G.G.G.G.G.G.G.G.G.G.G.G.G.G.G.      r u.D.D.F.F.F.F.F.F.F.A.j.T &       G.G.G.G.G.G.G.G.G.G.G.G.G.G.",
"G.G.G.G.G.G.G.G.G.G.G.G.G.G.G.G.        u U s.A.F.F.F.Z.r.G 2       G.G.G.G.G.G.G.G.G.G.G.G.G.G.G.G.",
"G.G.G.G.G.G.G.G.G.G.G.G.G.G.G.G.G.G.          % i a 5 $           G.G.G.G.G.G.G.G.G.G.G.G.G.G.G.G.G.",
"G.G.G.G.G.G.G.G.G.G.G.G.G.G.G.G.G.G.G.G.                      G.G.G.G.G.G.G.G.G.G.G.G.G.G.G.G.G.G.G.",
"G.G.G.G.G.G.G.G.G.G.G.G.G.G.G.G.G.G.G.G.G.G.G.G.G.  G.G.G.G.G.G.G.G.G.G.G.G.G.G.G.G.G.G.G.G.G.G.G.G.",
"G.G.G.G.G.G.G.G.G.G.G.G.G.G.G.G.G.G.G.G.G.G.G.G.G.G.G.G.G.G.G.G.G.G.G.G.G.G.G.G.G.G.G.G.G.G.G.G.G.G.",
"G.G.G.G.G.G.G.G.G.G.G.G.G.G.G.G.G.G.G.G.G.G.G.G.G.G.G.G.G.G.G.G.G.G.G.G.G.G.G.G.G.G.G.G.G.G.G.G.G.G.",
"G.G.G.G.G.G.G.G.G.G.G.G.G.G.G.G.G.G.G.G.G.G.G.G.G.G.G.G.G.G.G.G.G.G.G.G.G.G.G.G.G.G.G.G.G.G.G.G.G.G.",
"G.G.G.G.G.G.G.G.G.G.G.G.G.G.G.G.G.G.G.G.G.G.G.G.G.G.G.G.G.G.G.G.G.G.G.G.G.G.G.G.G.G.G.G.G.G.G.G.G.G.",
"G.G.G.G.G.G.G.G.G.G.G.G.G.G.G.G.G.G.G.G.G.G.G.G.G.G.G.G.G.G.G.G.G.G.G.G.G.G.G.G.G.G.G.G.G.G.G.G.G.G.",
"G.G.G.G.G.G.G.G.G.G.G.G.G.G.G.G.G.G.G.G.G.G.G.G.G.G.G.G.G.G.G.G.G.G.G.G.G.G.G.G.G.G.G.G.G.G.G.G.G.G.",
"G.G.G.G.G.G.G.G.G.G.G.G.G.G.G.G.G.G.G.G.G.G.G.G.G.G.G.G.G.G.G.G.G.G.G.G.G.G.G.G.G.G.G.G.G.G.G.G.G.G.",
"G.G.G.G.G.G.G.G.G.G.G.G.G.G.G.G.G.G.G.G.G.G.G.G.G.G.G.G.G.G.G.G.G.G.G.G.G.G.G.G.G.G.G.G.G.G.G.G.G.G.",
"G.G.G.G.G.G.G.G.G.G.G.G.G.G.G.G.G.G.G.G.G.G.G.G.G.G.G.G.G.G.G.G.G.G.G.G.G.G.G.G.G.G.G.G.G.G.G.G.G.G.",
"G.G.G.G.G.G.G.G.G.G.G.G.G.G.G.G.G.G.G.G.G.G.G.G.G.G.G.G.G.G.G.G.G.G.G.G.G.G.G.G.G.G.G.G.G.G.G.G.G.G."
};
