/* XPM */
static char *result[] = {
/* columns rows colors chars-per-pixel */
"50 50 222 2 ",
"   c #121D1D",
".  c #131B1B",
"X  c #100F0E",
"o  c #371607",
"O  c #371806",
"+  c #391608",
"@  c #35190B",
"#  c #3A1708",
"$  c #331C14",
"%  c #23130B",
"&  c #34281F",
"*  c #121C21",
"=  c #17272B",
"-  c #1B2E32",
";  c #232622",
":  c #3B2C22",
">  c #3C342A",
",  c #243B3D",
"<  c #383F3B",
"1  c #431C0D",
"2  c #4E1909",
"3  c #4B220D",
"4  c #5B260C",
"5  c #5B290F",
"6  c #51240B",
"7  c #482814",
"8  c #5A2912",
"9  c #562812",
"0  c #652A0B",
"q  c #6B2C0A",
"w  c #742A03",
"e  c #762E0A",
"r  c #7E330D",
"t  c #652C13",
"y  c #66371E",
"u  c #75361A",
"i  c #7B361B",
"p  c #7B391A",
"a  c #753615",
"s  c #6D3E25",
"d  c #41403C",
"f  c #7B482E",
"g  c #6F4A3B",
"h  c #744C39",
"j  c #76543A",
"k  c #1C3B44",
"l  c #294A48",
"z  c #394345",
"x  c #364B4A",
"c  c #2B5556",
"v  c #3C5B5A",
"b  c #365856",
"n  c #3B514A",
"m  c #325E65",
"M  c #2D6A69",
"N  c #2E6965",
"B  c #326967",
"V  c #326A69",
"C  c #39696A",
"Z  c #397375",
"A  c #424644",
"S  c #594C41",
"D  c #475559",
"F  c #7B5B45",
"G  c #6F5644",
"H  c #78665C",
"J  c #456567",
"K  c #47767A",
"L  c #5B797D",
"P  c #576B70",
"I  c #687A7A",
"U  c #777C6A",
"Y  c #82320C",
"T  c #88350E",
"R  c #8B3A14",
"E  c #8C3E1A",
"W  c #873511",
"Q  c #943F17",
"!  c #983F16",
"~  c #943F19",
"^  c #9A3E19",
"/  c #913613",
"(  c #832F0C",
")  c #8A441B",
"_  c #964017",
"`  c #944019",
"'  c #9C441C",
"]  c #9B441A",
"[  c #A1451B",
"{  c #9E4B26",
"}  c #9D4C29",
"|  c #964A27",
" . c #9D522A",
".. c #924E33",
"X. c #89543C",
"o. c #995937",
"O. c #8C492E",
"+. c #A14B25",
"@. c #A74E29",
"#. c #A5532B",
"$. c #AB532C",
"%. c #A85426",
"&. c #B2572C",
"*. c #A55431",
"=. c #AD5F3B",
"-. c #A65932",
";. c #BC5E34",
":. c #B05E3B",
">. c #B35B35",
",. c #AC603D",
"<. c #BD6335",
"1. c #B5623C",
"2. c #BB663C",
"3. c #BA663A",
"4. c #C25D33",
"5. c #C16434",
"6. c #CA6937",
"7. c #C56639",
"8. c #CA6739",
"9. c #C56A3C",
"0. c #CB693B",
"q. c #CA6737",
"w. c #965C45",
"e. c #B55F43",
"r. c #91634B",
"t. c #AB6847",
"y. c #B56543",
"u. c #BC6644",
"i. c #B56945",
"p. c #BC6944",
"a. c #BD6748",
"s. c #BA6949",
"d. c #B46A4A",
"f. c #B57252",
"g. c #B86E51",
"h. c #837770",
"j. c #C36743",
"k. c #C46B44",
"l. c #CB6D44",
"z. c #C66C49",
"x. c #CB6D4A",
"c. c #D16E45",
"v. c #D16F49",
"b. c #CC7046",
"n. c #CC7049",
"m. c #C57148",
"M. c #D47246",
"N. c #DD7647",
"B. c #DC764A",
"V. c #DD7A4A",
"C. c #D67749",
"Z. c #CB7A56",
"A. c #DA7C51",
"S. c #E47B4A",
"D. c #E77C49",
"F. c #40847F",
"G. c #6E867D",
"H. c #85867A",
"J. c #D9845A",
"K. c #CC815B",
"L. c #E18149",
"P. c #D58862",
"I. c #CE8160",
"U. c #5B7C83",
"Y. c #607A85",
"T. c #468988",
"R. c #54888C",
"E. c #47918D",
"W. c #598991",
"Q. c #469394",
"!. c #579999",
"~. c #658287",
"^. c #6D959D",
"/. c #69969A",
"(. c #72939E",
"). c #739596",
"_. c #6F8D8B",
"`. c #6B96A2",
"'. c #639BA4",
"]. c #699BA3",
"[. c #619FAA",
"{. c #6797A4",
"}. c #5CA3A5",
"|. c #5CA3AB",
" X c #58A8AA",
".X c #5DACB2",
"XX c #57ADB4",
"oX c #4EB6B5",
"OX c #55B5B4",
"+X c #5AB4B4",
"@X c #55B5BA",
"#X c #54BABB",
"$X c #5AB6BA",
"%X c #54ACA7",
"&X c #64A4AB",
"*X c #61ABAE",
"=X c #67A4A8",
"-X c #65ABB3",
";X c #67AEB6",
":X c #65B3BA",
">X c #63BCBE",
",X c #6BBBBB",
"<X c #65B3B6",
"1X c #75B2B0",
"2X c #6AC3BF",
"3X c #5EBFC1",
"4X c #62BCC3",
"5X c #5DC6CC",
"6X c #5EC6C7",
"7X c #5FCBD2",
"8X c #5ED9D5",
"9X c #5DD3CD",
"0X c #63C2C4",
"qX c #63C4CA",
"wX c #63CCCE",
"eX c #6BC9CA",
"rX c #68CDD3",
"tX c #63DBDD",
"yX c #64D5D6",
"uX c #70CDCB",
"iX c #65E1E1",
"pX c None",
/* pixels */
"pXpXpXpXpXpXpXpXpXpXpXpXpXpXpXpXpXpXpXpXpXpXpXpXpXpXpXpXpXpXpXpXpXpXpXpXpXpXpXpXpXpXpXpXpXpXpXpXpXpX",
"pXpXpXpXpXpXpXpXpXpXpXpXpXpXpXpXpXpXpXpXpXpXpXpXpXpXpXpXpXpXpXpXpXpXpXpXpXpXpXpXpXpXpXpXpXpXpXpXpXpX",
"pXpXpXpXpXpXpXpXpXpXpXpXpXpXpXpXpXpXpXpXpXpXC M M M M M J pXpXpXpXpXpXpXpXpXpXpXpXpXpXpXpXpXpXpXpXpX",
"pXpXpXpXpXpXpXpXpXpXpXpXpXpXpXpXpXpX- b E.Q.iXqX4XqX4X8XOXQ.F.= pXpXpXpXpXpXpXpXpXpXpXpXpXpXpXpXpXpX",
"pXpXpXpXpXpXpXpXpXpXpXpXpXpXpXpXpXk XX+X-X+X$X0X/.`..XwXXX;X-X$XZ , pXpXpXpXpXpXpXpXpXpXpXpXpXpXpXpX",
"pXpXpXpXpXpXpXpXpXpXpXpXpXpXpXc E.wXyX$X`.^.'.!.K P T. X`.^.&X7XrX Xc c pXpXpXpXpXpXpXpXpXpXpXpXpXpX",
"pXpXpXpXpXpXpXpXpXpXpXpXpXpXF.8X:X{.*X,XW.D A @ + + @ > D J ,X<X{.=X7XoXJ pXpXpXpXpXpXpXpXpXpXpXpXpX",
"pXpXpXpXpXpXpXpXpXpXpXpXpXK <X6X:X^.~.x d 1 3 e e e e 0 2 & n J /.&XqX4X!.l pXpXpXpXpXpXpXpXpXpXpXpX",
"pXpXpXpXpXpXpXpXpXpXpXpXK :X].{.;Xv $ 9 t Y W l.1.=.1.| ( e 4 7 = =X=X^.&X&Xc pXpXpXpXpXpXpXpXpXpXpX",
"pXpXpXpXpXpXpXpXpXpXpXl wX|.]._.A 6 q R #.k.^ B.j.s.p.} 5.0.~ a 0 > I )./.6XT.pXpXpXpXpXpXpXpXpXpXpX",
"pXpXpXpXpXpXpXpXpXpXpXE.qXeX/.d 6 } $.u.p.m._ S.p.s.p.} 8.M.z.>.@.0 & L ,X6X%Xb pXpXpXpXpXpXpXpXpXpX",
"pXpXpXpXpXpXpXpXpXpX, 0X{.].l 9 w 6.M.j.k.x.! V.p.j.u.} 8.l.x.v.c.Y q & W./.,XM pXpXpXpXpXpXpXpXpXpX",
"pXpXpXpXpXpXpXpXpXpX%X|.^.Y.; W | 6.M.l.k.k.! V.k.n.p.} 8.0.z.c.x.~ >.1 P ^.&X$Xl pXpXpXpXpXpXpXpXpX",
"pXpXpXpXpXpXpXpXpXb @X4X-Xz 9 | { 6.l.n.z.j._ V.l.v.2.} 7.l.k.M.9.~ 0.u % /.:XeXZ pXpXpXpXpXpXpXpXpX",
"pXpXpXpXpXpXpXpXpXE..X4XR.: a 2.{ q.l.n.b.p._ N.l.v.j.} q.k.a.x.9.~ N.| 3 v ,X XuX- pXpXpXpXpXpXpXpX",
"pXpXpXpXpXpXpXpXpXQ.:X`.D 1 o.u.{ 8.l.l.z.u.` B.l.v.2.} 7.l.p.l.k.! V.1.a ; ^.].rX- pXpXpXpXpXpXpXpX",
"pXpXpXpXpXpXpXpXx %X*X^.z 6 ,.i.+.8.k.l.k.i.` B.l.c.k.+.7.z.p.l.v.^ A.j.i : R.^.4Xm pXpXpXpXpXpXpXpX",
"pXpXpXpXpXpXpXpXV wX0X!.@ ) u.p.+.8.k.j.u.s._ S.l.k.x.} 8.l.i.l.v.^ S.2.| 9 b >X5X+XpXpXpXpXpXpXpXpX",
"pXpXpXpXpXpXpXpXV yX4X!.@ <.l.u.} 0.9.p.u.u._ D.0.j.x.+.6.l.p.l.x._ D.p.s.9 n 4XqX+X  pXpXpXpXpXpXpX",
"pXpXpXpXpXpXpXpXB 4X].I # <.j.y.| 7.1.y.y.1._ C.9.1.a.{ <.7.y.1.2.R M.y.y.4 A ^.}.%X. pXpXpXpXpXpXpX",
"pXpXpXpXpXpXpXpXB 4X^.H ) ' { ' ] [ ' ' ' ' ' [ [ ' [ ' ' [ ' ' ' ' { ' ' _ X._.|.OX. pXpXpXpXpXpXpX",
"pXpXpXpXpXpXpXpXV yX1Xf L.V.V.J.B.N.V.A.J.V.N.N.V.P.A.B.B.B.J.J.C.V.C.J.J.C.-.G.5X#X  pXpXpXpXpXpXpX",
"pXpXpXpXpXpXpXpXB wX1Xj C.y.i.f.y.y.s.d.g.u.y.u.t.f.d.y.y.i.s.g.y.1.y.f.i.y...G.3XOX. pXpXpXpXpXpXpX",
"pXpXpXpXpXpXpXpXB >X/.U a r Y r Y Y r r r Y r Y Y r Y Y r r r r r r Y r r r G ).}.+X. pXpXpXpXpXpXpX",
"pXpXpXpXpXpXpXpXN 4X^.L + R ~ E r R ~ E E E r ' ) E Q W R E E E E r ` ~ E 4 A (.&XOX  pXpXpXpXpXpXpX",
"pXpXpXpXpXpXpXpXM tXqX}.# 2.l.a.} 0.c.z.i.i.Q S.l.s.k.@.8.l.s.p.p.~ V.l.2.9 b eX9XOX. pXpXpXpXpXpXpX",
"pXpXpXpXpXpXpXpXM 7X.XR.# 7.z.t.{ 6.l.l.p.u._ D.c.p.k.@.8.l.u.a.p.~ D.M.z.8 n -XOXOX  pXpXpXpXpXpXpX",
"pXpXpXpXpXpXpXpXB 4X].U.o 5.t.F O.8.l.x.p.p.` N.x.j.m.#.8.l.p.p.u.! D.x.z.8 x ^.}.OX  pXpXpXpXpXpXpX",
"pXpXpXpXpXpXpXpXB 4X'.U.O 3.j H.y 9.9.x.x.u.` B.l.l.x.+.q.l.p.z.p.~ D.0.l.8 z `. X+X* pXpXpXpXpXpXpX",
"pXpXpXpXpXpXpXpXM tX9X}.@ 9.r.H f q.k.k.x.u.~ V.k.c.c.+.8.l.k.z.p.~ D.l.l.5 v rX8XOX  pXpXpXpXpXpXpX",
"pXpXpXpXpXpXpXpXB wX<XW.O <.i.h ..7.k.a.l.k._ V.p.x.l.+.8.l.k.z.u.^ D.b.l.9 x -X$XOX* pXpXpXpXpXpXpX",
"pXpXpXpXpXpXpXpXB 4X/.U.O <.i.h | 8.k.a.k.l.! V.j.x.x.} 8.k.k.z.p.~ D.M.2.9 z ^.[.OX* pXpXpXpXpXpXpX",
"pXpXpXpXpXpXpXpXB 0X].U.o 5.3.h | 8.l.s.z.k.! S.u.c.x.+.q.z.k.x.p.Q S.l.u.8 z ^.|.OX  pXpXpXpXpXpXpX",
"pXpXpXpXpXpXpXpXB tXwX*X@ <.t.g ..9.k.p.k.l.^ B.u.l.b.+.q.l.l.x.k.Q N.l.k.8 v uX8XoX* pXpXpXpXpXpXpX",
"pXpXpXpXpXpXpXpXM 5X.XW.+ 3.F H.y 9.k.u.u.x.^ S.j.b.x.+.q.l.v.v.k._ V.l.x.8 x .X@X@X* pXpXpXpXpXpXpX",
"pXpXpXpXpXpXpXpXV 4X^.L o ;.r.U s 0.0.s.p.x.^ V.p.m.x.+.q.l.c.v.k._ V.z.j.8 z `.[.OX* pXpXpXpXpXpXpX",
"pXpXpXpXpXpXpXpXM 4X/.U.o <.s.w...6.9.u.j.x.^ B.2.u.i.} 6.M.x.x.k.` N.k.2.8 z {.|.$X* pXpXpXpXpXpXpX",
"pXpXpXpXpXpXpXpXM tXrX}.o 5.0.s.| 6.l.p.a.x.^ S.p.p.p.} q.N.j.z.p._ S.j.y.8 v eX8X#X* pXpXpXpXpXpXpX",
"pXpXpXpXpXpXpXpXM qX*XW.# <.l.s.+.8.k.a.u.z._ A.p.s.p.} 8.N.j.j.m.! V.u.d.9 x [.XXOX* pXpXpXpXpXpXpX",
"pXpXpXpXpXpXpXpXV 4X).I 2 #.-.*.` $.$.*.*.$.T ;.$.#.*.` $.;.&.*.>./ <.*. .0 S ).}.OX* pXpXpXpXpXpXpX",
"pXpXpXpXpXpXpXpXV 4X).F <.4.4.<.;.;.;.<.<.;.;.4.<.<.;.4.;.;.3.;.;.;.;.1.<.<.o.G.}.OX  pXpXpXpXpXpXpX",
"pXpXpXpXpXpXpXpXV iXuXf L.l.n.K.z.b.b.Z.Z.z.x.x.s.P.m.x.l.l.Z.I.m.b.m.K.Z.m. ._.yX#X  pXpXpXpXpXpXpX",
"pXpXpXpXpXpXpXpXV 4X).j p.=.y.,.=.=.=.,.y.=.=.:.,.t.=.:.:.=.,.,.>.,.,.,.-.,.X.I  X@X  pXpXpXpXpXpXpX",
"pXpXpXpXpXpXpXpXV 4X^.I 4 w w w w w w w w w w w w w w w w w w w w w w w w 0 g ).|.+X  pXpXpXpXpXpXpX",
"pXpXpXpXpXpXpXpXB 6X].U.O +.&.-.R $.#.#.#. .T &.%.$.#.E %.%.$.$.#.W ;.#. .4 z ]. X$X  pXpXpXpXpXpXpX",
"pXpXpXpXpXpXpXpXB iXyX*XO 5.M.n.{ 8.l.k.z.p._ V.l.x.x.+.8.l.l.x.k._ S.s.y.8 v yX8X#X  pXpXpXpXpXpXpX",
"pXpXpXpXpXpXpXpXB qX}.R.O 5.0.n.+.q.l.z.z.i.Q N.l.l.l.} 8.l.k.x.k._ V.u.y.8 z &XXXOX  pXpXpXpXpXpXpX",
"pXpXpXpXpXpXpXpXB >X(.Y.+ <.b.l.#.q.l.x.u.u.! D.x.k.n.@.8.l.a.k.u.` V.p.u.9 z ^.[.+X  pXpXpXpXpXpXpX",
"pXpXpXpXpXpXpXpXC <X).I @ 1.l.9.} 9.n.p.p.i.) S.x.k.z.#.j.k.s.p.i.` V.p.t.5 z ).&X*X. pXpXpXpXpXpXpX",
"pXpXpXpXpXpXpXpXpX- = . X 8 i u 9 t p u p u 2 p i i u 8 t i i u u 1 p u y % X = = , pXpXpXpXpXpXpXpX"
};
