/* XPM */
static char *result[] = {
/* columns rows colors chars-per-pixel */
"50 50 185 2 ",
"   c #2A363B",
".  c #26333A",
"X  c #353D3E",
"o  c #703D3F",
"O  c #0C1A42",
"+  c #122344",
"@  c #1B2A45",
"#  c #1D2D4A",
"$  c #1B2746",
"%  c #1C3C42",
"&  c #143D45",
"*  c #1E2E51",
"=  c #242F49",
"-  c #243346",
";  c #2E3C44",
":  c #25344D",
">  c #29374B",
",  c #2B3A4D",
"<  c #323E43",
"1  c #303D48",
"2  c #293651",
"3  c #2C3A53",
"4  c #2F3E58",
"5  c #203155",
"6  c #313F5A",
"7  c #313E54",
"8  c #403E41",
"9  c #264146",
"0  c #2F474E",
"q  c #354146",
"w  c #36434B",
"e  c #3A454B",
"r  c #3C494E",
"t  c #3C4446",
"y  c #354255",
"u  c #394552",
"i  c #344B52",
"p  c #3D4A51",
"a  c #34425A",
"s  c #39465D",
"d  c #3C495A",
"f  c #2F545C",
"g  c #355257",
"h  c #3C5358",
"j  c #424D4B",
"k  c #52494D",
"l  c #4A534C",
"z  c #45504D",
"x  c #414D54",
"c  c #424E5D",
"v  c #465156",
"b  c #4A5454",
"n  c #4F5957",
"m  c #465259",
"M  c #4A555B",
"N  c #4E595E",
"B  c #535B54",
"V  c #585F50",
"C  c #545E5D",
"Z  c #565457",
"A  c #65474B",
"S  c #724D4F",
"D  c #604E51",
"F  c #6A5053",
"G  c #58604F",
"H  c #5B6253",
"J  c #5C635B",
"K  c #6A6E4E",
"L  c #76784D",
"P  c #696F54",
"I  c #606658",
"U  c #646A5D",
"Y  c #707451",
"T  c #787C5B",
"R  c #465260",
"E  c #4E5961",
"W  c #4B5660",
"Q  c #545E63",
"!  c #566165",
"~  c #596267",
"^  c #556269",
"/  c #5A656B",
"(  c #5D696D",
")  c #5E6B72",
"_  c #686E62",
"`  c #7E6062",
"'  c #787C61",
"]  c #626D73",
"[  c #863D3E",
"{  c #E63A35",
"}  c #E53C38",
"|  c #E83833",
" . c #F53B36",
".. c #FC3A35",
"X. c #CB413F",
"o. c #C2403E",
"O. c #D1413F",
"+. c #FB443F",
"@. c #825759",
"#. c #9A5657",
"$. c #A24646",
"%. c #BE4241",
"&. c #B05454",
"*. c #996869",
"=. c #B66D6C",
"-. c #C04240",
";. c #C84C49",
":. c #E94642",
">. c #E74C4A",
",. c #E84F4B",
"<. c #F34A45",
"1. c #E7504D",
"2. c #E9504D",
"3. c #F6504A",
"4. c #F9504C",
"5. c #EC5954",
"6. c #F95953",
"7. c #F3605A",
"8. c #F96C67",
"9. c #FD7C77",
"0. c #8F8D4F",
"q. c #838453",
"w. c #8C8C55",
"e. c #908E53",
"r. c #939155",
"t. c #9C9A56",
"y. c #9A985A",
"u. c #A19E56",
"i. c #A29F5D",
"p. c #A4A155",
"a. c #B3AF56",
"s. c #B3AF58",
"d. c #BBB65B",
"f. c #8C8E63",
"g. c #8F9164",
"h. c #9C9B64",
"j. c #969667",
"k. c #A8A562",
"l. c #BAB665",
"z. c #C3BF5B",
"x. c #C2BB60",
"c. c #C6C35B",
"v. c #CDC65B",
"b. c #D2CC5B",
"n. c #DCD65A",
"m. c #EBE55F",
"M. c #F5E65C",
"N. c #F4EC5D",
"B. c #FCEC5D",
"V. c #F5F25E",
"C. c #FEF45E",
"Z. c #FEFA5E",
"A. c #C7C364",
"S. c #CFCC6F",
"D. c #C8C66B",
"F. c #D2CD6B",
"G. c #D7D26F",
"H. c #D9D665",
"J. c #DBD871",
"K. c #E7E264",
"L. c #EDE760",
"P. c #EFED65",
"I. c #F4EE63",
"U. c #FFEF64",
"Y. c #F4EF6B",
"T. c #FEEF6B",
"R. c #FEF265",
"E. c #FEFB63",
"W. c #F7F36B",
"Q. c #FFF16B",
"!. c #FFFC6B",
"~. c #F4F266",
"^. c #E9E570",
"/. c #FDEF71",
"(. c #F2ED74",
"). c #FEF372",
"_. c #FFFD72",
"`. c #F7F472",
"'. c #969EB2",
"]. c #ABB0B3",
"[. c #BBC0D3",
"{. c #D1D3D5",
"}. c #E5E7E7",
"|. c #E7E9E9",
" X c None",
/* pixels */
" X X X X X X X X X X X X X X X X X X X X X X X X X X X X X X X X X X X X X X X X X X X X X X X X X X",
" X X X X X X X X X X X X X X X X X X X X X X X X X X X X X X X X X X X X X X X X X X X X X X X X X X",
" X X X X X X X X X X X X X X X X X X X X X X X X X X X X X X X X X X X X X X X X X X X X X X X X X X",
" X X X X X X X X X X X X X X X X X X X X X X X X X X X X X X X X X X X X X X X X X X X X X X X X X X",
" X X X X X X X X X X X X X X X X X X X X X X X X X X X X X X X X X X X X X X X X X X X X X X X X X X",
" X X X X X X X X X X X X X X X X X X X X X X X X X X X X X X X X X X X X X X X X X X X X X X X X X X",
" X X X X] ( ] ] (  X X X X X X X X X X X X X X X X X X X X X X X X X X X X X X X Xx m x e x  X X X X",
" X X X X~ ~ ! ! Q Q ) /  X X X X X X X X X X X X X X X X X X X X X X X X X Xx x e e e w e w  X X X X",
" X X X XQ ~ Q ! Q Q Q M ^ /  X X X X X X X X X X X X X X X X X X X X X Xm x , e r e e w w q  X X X X",
" X X X XM ~ ~ Q Q Q R J._ R (  X X X X X X X X X X X X X X X X X X X XM , V H.> e e e t t <  X X X X",
" X X X X X~ ~ Q Q Q Q ).).J.6 Q  X X X X X X X X X X X X X X X X X Xx # H.E.E.t j t e w w  X X X X X",
" X X X X X( Q Q Q E S./.)./._.6 !  X X X Xx N Q Q E E M r  X X X Xm : E.U.R.B.z.w w w w e  X X X X X",
" X X X X X] Q Q Q s _.).).)./.`.s N Q Q m 7 7 c n n p 3 3 x M c x > W.U.U.U.B.E.# w t w p  X X X X X",
" X X X X XM Q Q Q Q ).)./.)._.g.m M 4 U D.W.!.!.R.!.!.!.W.c.H : p u q.E.U.B.U.E.e t t w <  X X X X X",
" X X X X X X( Q Q j.).).).).j.R a l._.Q.T.Q.T.Q.Q.Q.R.T.U.T.R.!.s.> w e.R.B.B.R.e.w w u  X X X X X X",
" X X X X X X! Q E G.).).).).).D._./.Q.Q.T.Q.Q.Q.Q.Q.T.Q.U.U.R.R.U.!.c.E.U.E.U.B.b.1 w e  X X X X X X",
" X X X X X X X] R (./._.Q F././.Q.Q.).T.T.Q.Q.Q.Q.R.R.U.T.T.U.R.U.U.B.U.v.j E.C.L.: p  X X X X X X X",
" X X X X X X X X/ a S.D.M g.Q.).).T.Q.T.Q.Q.Q.T.T.U.Q.U.U.U.U.U.U.U.R.C.q.t d.v.$ r  X X X X X X X X",
" X X X X X X X X X) M c a _./.Q.).T.Q.T.T.T.Q.Q.Q.U.Q.T.T.U.U.U.U.U.U.R.E.$ > < x  X X X X X X X X X",
" X X X X X X X X X Xr C ' ).T.).T.T.).Q.R.Q.T.Q.R.T.U.U.U.U.U.U.R.B.U.B.U.P w    X X X X X X X X X X",
" X X X X X X X X X XM s ^./.T.Q.T.Q.Q.Q.Q.T.Q.U.R.T.U.U.U.R.U.U.B.R.B.R.B.m.- <  X X X X X X X X X X",
" X X X X X X X X X X/ d _.).T./.T.).T.T.Q.Q.Q.U.T.R.T.T.U.U.U.U.U.U.R.B.C.E.- x  X X X X X X X X X X",
" X X X X X X X X X XQ g.).T.).Q.Q.!.T.T.T.R.T.Q.R.U.U.U.U.U.U.U.E.C.U.B.U.C.q.w  X X X X X X X X X X",
" X X X X X X X X X Xm J.T./.T.(.U b c.W.Q.Q.U.Q.U.T.U.U.U.U.R.c.X V I.U.B.B.n.;  X X X X X X X X X X",
" X X X X X X X X Xb a `.Q.).!.* j {.[.c.T.U.Q.T.U.T.U.U.U.U.c.'.|.. + E.B.B.V.@ <  X X X X X X X X X",
" X X X X X X X X XM a _.Q.Q.k.M e {.{.j R.T.R.R.U.U.T.U.R.R.z ].|.. e t.B.R.Z.@ q  X X X X X X X X X",
" X X X X X X X X XQ a _.).Q.l.m M e e I !.Q.T.U.T.U.U.U.U.R.G q   e t s.C.C.Z.@ e  X X X X X X X X X",
" X X X X X X X X X/ d _.Q./._.3 x v * Y.U.Q.R.T.R.U.U.U.U.U.I.+ e w $ E.B.B.E.- p  X X X X X X X X X",
" X X X X X X X X XN f.Q.).Q.T.!.l.k.W.Q.Q.R.U.K.y.y.K.U.U.U.B.E.u.a.E.B.C.B.B.q.q  X X X X X X X X X",
" X X X X X X X X/ 4 !._.Q.Q.Q.Q.T.Q.T.R.T.U.R.u x j w E.B.R.B.U.R.B.C.B.B.C.Z.Z.+ r  X X X X X X X X",
" X X X X X X X XQ h.h.C J l.!.T.Q.T.U.!.W.U.T.!.> > !.U.B.U.E.U.B.C.C.Z.a.l t 0.w.q  X X X X X X X X",
" X X X X X X X XM c M g g m 7 !.T.Q.!.2 i.E.!.~.P P I.E.E.u.= E.C.B.Z.@ X % % q - <  X X X X X X X X",
" X X X X X X Xt M h =.9.9.` v J !.U.!.* j 2 : > p i : : : w $ C.C.C.l q S 8.6.&.- <  X X X X X X X X",
" X X X X X X X XM *.5.>.>.6.M 2 W.Q.T.!.t.b p A %.-.A e j u.Z.M.M.C.$ t 7.{ } | [ <  X X X X X X X X",
" X X X X X X X XQ @.2.2.1.>.#.u K.Q.R.Q.R.y.i ;.-.X.o.w u.M.M.M.N.n.- #.{ } } { o q  X X X X X X X X",
" X X X X X X X X^ f 4.2.1.3.F 3 Y.U.T.U.Q.d.i -.<.:.$.w v.M.M.M.M.N.# D | } } ..& e  X X X X X X X X",
" X X X X X X X X XM Z 3.3.;.g u Q.Q.R.U.T.I.> k +.+.w # C.M.M.M.M.Z.. 9 o. . .8 q  X X X X X X X X X",
" X X X X X X X X XQ v v v h * W.U.Q.R.T.U.E.x r e w e Y N.M.M.M.M.B.N.O 9 ; ; ; e  X X X X X X X X X",
" X X X X X X X X X X^ M x T !.T.Q.U.U.T.U.U.E.V : # Y E.M.M.B.B.B.B.M.Z.K   q p  X X X X X X X X X X",
" X X X X X X X X X X XQ b x W.W.U.T.U.U.U.U.U.E.E.E.M.M.M.B.M.B.B.B.B.V.X q e  X X X X X X X X X X X",
" X X X X X X X X X X X XM M 2 T W.R.R.U.U.U.R.U.R.M.M.M.M.B.B.B.C.V.Y + e q  X X X X X X X X X X X X",
" X X X X X X X X X X X X X XN v 2 b x.W.E.R.R.R.U.R.B.B.C.Z.V.d.j @ q p  X X X X X X X X X X X X X X",
" X X X X X X X X X X X X X X X XM M p > > b Y w.t.t.w.K j - @ q t e  X X X X X X X X X X X X X X X X",
" X X X X X X X X X X X X X X X X X X Xe m m v p p u r p x r q  X X X X X X X X X X X X X X X X X X X",
" X X X X X X X X X X X X X X X X X X X X X X X X X X X X X X X X X X X X X X X X X X X X X X X X X X",
" X X X X X X X X X X X X X X X X X X X X X X X X X X X X X X X X X X X X X X X X X X X X X X X X X X",
" X X X X X X X X X X X X X X X X X X X X X X X X X X X X X X X X X X X X X X X X X X X X X X X X X X",
" X X X X X X X X X X X X X X X X X X X X X X X X X X X X X X X X X X X X X X X X X X X X X X X X X X",
" X X X X X X X X X X X X X X X X X X X X X X X X X X X X X X X X X X X X X X X X X X X X X X X X X X",
" X X X X X X X X X X X X X X X X X X X X X X X X X X X X X X X X X X X X X X X X X X X X X X X X X X"
};
