/* XPM */
static char *result[] = {
/* columns rows colors chars-per-pixel */
"50 50 98 2 ",
"   c #3E1500",
".  c #3C1C00",
"X  c #3C2400",
"o  c #3E2800",
"O  c #411C00",
"+  c #4B1F00",
"@  c #711F02",
"#  c #412500",
"$  c #4B2400",
"%  c #412900",
"&  c #4A2900",
"*  c #522300",
"=  c #5A2500",
"-  c #542D00",
";  c #5A2D00",
":  c #5E270A",
">  c #5F2D0A",
",  c #543001",
"<  c #5F3301",
"1  c #6F2600",
"2  c #6E2B06",
"3  c #622E09",
"4  c #6A2F09",
"5  c #712402",
"6  c #722A03",
"7  c #613302",
"8  c #6D3304",
"9  c #60300B",
"0  c #693009",
"q  c #713406",
"w  c #733806",
"e  c #793907",
"r  c #723208",
"t  c #8B3D0A",
"y  c #8C410E",
"u  c #A64411",
"i  c #A84412",
"p  c #A74A16",
"a  c #AD4A17",
"s  c #AF4B18",
"d  c #B54613",
"f  c #B84513",
"g  c #B04917",
"h  c #B94916",
"j  c #B24C19",
"k  c #BB4E1B",
"l  c #B1511F",
"z  c #BD501E",
"x  c #B35321",
"c  c #DB5B27",
"v  c #DA5C29",
"b  c #E85A27",
"n  c #E95E2B",
"m  c #FF5623",
"M  c #FF5C29",
"N  c #EA612D",
"B  c #F1632F",
"V  c #FF622F",
"C  c #ED6330",
"Z  c #F36632",
"A  c #FF6633",
"S  c #F66834",
"D  c #FF6936",
"F  c #FF6D3B",
"G  c #EE713E",
"H  c #F1713D",
"J  c #FF703D",
"K  c #EB7440",
"L  c #E77F4C",
"P  c #E87F4C",
"I  c #F17643",
"U  c #FF7442",
"Y  c #FF7D4A",
"T  c #E9804D",
"R  c #F3814E",
"E  c #EA8552",
"W  c #F48A57",
"Q  c #FF8956",
"!  c #F28B59",
"~  c #FF8D5A",
"^  c #FF905D",
"/  c #EA9562",
"(  c #FF9E6A",
")  c #FFA16E",
"_  c #FFB582",
"`  c #FFBA87",
"'  c #FFBD89",
"]  c #FFC18D",
"[  c #FFC491",
"{  c #FFD39F",
"}  c #FFD5A2",
"|  c #FFD9A6",
" . c #FFDDAA",
".. c #FFE1AE",
"X. c #FFE6B3",
"o. c #FFE9B6",
"O. c #FFEDBA",
"+. c #FFFACA",
/* pixels */
": 5 5 @ 5 @ 5 4 9 2 @ 5 5 @ @ @ 5 @ @ 5 @ @ @ 2 > 3 5 5 5 @ @ 5 @ @ 5 @ 5 @ 5 @ 2 > 3 5 @ @ 5 @ 5 : ",
"5 ) ` _ _ _ ' h . K ] _ _ _ _ _ _ _ _ _ _ _ ' ) 6 5 ( ` _ _ _ _ _ _ _ _ _ _ _ ' I . h ' _ _ _ ' ) 5 ",
"@ { O.X.X.X.+.x . / +.X.X.X.X.X.X.X.X.X.X.X.+.} 5 5 } O.X.X.X.X.X.X.X.X.X.X.X.+./ O l +.X.X.X.O.| @ ",
"2 Y ~ Q Q ~ ~ s o N ^ Q Q Q Q Q Q Q Q Q Q Y Q Y q q Y ~ Q Q Q Q Q Q Q ~ Q Q Q ^ N # g ~ Q Q Q ~ Y 2 ",
"r A M M M M A s % n M M M M M M M M M M M M M A w r A M M M M M M M M M M M M M n X j A M M M M A r ",
"2 D A V A A F j o n D A A A A A A A A A A A V S r 0 F V A A A A A A A A A A A D n % j F A A A A D r ",
"r U U F F F U z X Z J F F F F F U U F F F U F I w w I S F F U F J F F F F F F J Z X j U F F F U U r ",
"4 k j j j l z t , p j j k j j k g g g j g j g c 8 8 c j j j j g j j j j j j j j a - y x j j j j k 4 ",
"> . X O O # . $ = O O O O O . # ; & . O O O O . $ * . # O O O . & ; # O O O O . O = $ . # O # O . > ",
"2 H E P L L P P T T T T T T E v # i R P T T T P T T T T P T T R i # v W P P T P T P P P P P P E K 2 ",
"@ { O.o.X.X.X.X.O.O.o.X.X.X.+./   x +.X.o.X.X.X.o.O.O.o.X.X.o.+.x   / +.X.X.X.X.X.o.X.X.X.X.X.O.} 5 ",
"5 ( ' _ _ _ _ _ _ ) _ _ _ _ ] K O g ' _ _ _ _ _ _ ) _ _ _ _ _ ` g . K ' _ _ _ _ _ _ _ _ _ _ _ ' ( 5 ",
"r M m m m m m m m m m m m m m b % g M m m m m m m m m m m m m M s % b m m m m m m m m m m m m m M 0 ",
"8 F A A A A A A A D A A A A D n % g F A A A A A A A A A A A A F j # n D A A A A A A A A A A A A D r ",
"r F D D A D A D D D D D D D D N X j U A D D D D D D D A D D D F j # N D D D D A D D A D D D D A F r ",
"2 C N N N N N N N N n N n N C v # p S n N n n n N n N n n N N Z p % v C N N n C n n n C n n C n Z 0 ",
": X % # # # % $ ; # X % # % % % ; $ % % % X % X - , o o X % % X & ; # % % # % # % = & X % % X % X > ",
"0 f g a g g h t - i g g a g g g j g g g g s g h 8 8 h j g g g a a a g g g g g g u - t h g g g g d 4 ",
"1 [ X.| | | O.x   W O.| | | | | | | | | | | X.[ 6 6 [ ..| | | | | | | | | | | O.!   z o. .| | ..[ 5 ",
"@ ' | } | | X.j O E X.} } } } { } } } } } }  .' 6 1 '  .} } } } } } } } } } } o.E O g X.} } }  .] @ ",
"0 A A A A A D g X b A A A A A A A A A A A A A A w 8 A D A A A A A A V A V A A D n X a D A A A A A r ",
"r D A A A A F s % n A A V A A A A A A A A A A F w q F A A A A A A A A A A A A A N X s F A A A A D 0 ",
"q F A A A A F j X n A A A A A V A A A A A A A F w 8 F A A A A A A A A A A A A A N X s J A A A A D r ",
"q J F F F F U k X S U F F J J J F F F F F F F U w w U F F F F D F F J F F J F J Z X z U F F F F U r ",
"3 r w w w w w 8 7 q q w w w w w e w w w w w w w 7 7 w w w w w w w w w w w w w w q < 8 w w w w w q 3 ",
"9 5 5 5 6 5 1 6 6 1 5 5 5 6 5 8 7 7 6 5 5 5 6 5 6 6 6 5 5 5 5 6 8 < 8 5 5 5 6 5 5 6 6 1 5 6 5 5 6 3 ",
"6 ) ' _ _ _ _ ` _ ` _ _ _ _ [ I X k ] ` _ _ _ _ _ _ _ _ _ _ _ ] k X K [ _ _ ` _ _ _ _ ` _ _ _ ] ) 5 ",
"@ { O.X.X.X.X.X.X.X.X.X.X.X.+./ O l +.X.X.X.X.X.X.X.X.X.X.X.X.+.x O / +.X.X.X.X.X.X.X.X.X.X.X.O.{ @ ",
"2 Y ~ Q Q Q Q Q ~ Q Q Q ~ ~ ~ C % g ~ Q ~ Q Q Q Q Q Q Q Q Q Q ~ g % C ^ Q Q Q Q Q Q Q Q Q Q Q ~ Y 6 ",
"r A M M M M M M M M M M M M M n % g A M M M M M M M M M M M M A j % n M M M M M V M M M M M M M D r ",
"8 D A A D A A A A A A A A A A n % s D A A A A A A A A A A A A F j o n D A A A A A A A A A A A A D 0 ",
"r U F F F F F F F F F F F D U Z X z U F F F F F F F F F F F F U k X Z J F F F F F F F F F F F J U r ",
"0 k g j g j j k j g j j j j l a * t x j j j j j j j j j j k j k t - a j j j j j j j j j j j j j k 4 ",
"9 X . O O O . & ; % O O O O O O = + O $ $ O O X - , X # # . . X $ = O O . O O O # ; $ O O O O O X > ",
"2 H E P P P P u # v P P P P P P L P P P L L T K 2 8 I E L L L L P L P P P P P E v # i P P P P P G 2 ",
"@ } O.X.O.X.+.x O / +.o.X.X.X.o.X.X.X.X.X.X.O.| 5 @ } O.X.X.X.X.X.X.o.X.X.X.o.+./ O x +.X.X...+.| @ ",
"1 ( ' _ _ _ ' s . K ' _ _ _ _ _ _ _ _ _ _ _ ' ( 6 6 ( ' ) ' _ _ _ _ _ _ _ _ _ ' K O g _ _ _ _ ` ) 1 ",
"r M m m m m M j # n m m m m m m m m m m m m m A w w V m m M m m m m m m m m m m n # g M m m m m V r ",
"0 D A A A A F j # N A A A A A A A A A A A A A F w w F A D A A A A A A A A A A D N X g U A A A A D 8 ",
"r F D D A A J j X N D D A D D A D D D D A A A F w 8 J D D D D A D A D D A D D D C X g U D A D A F r ",
"2 Z N N N N S p # v C C C n C N C N N N C n C S q q S n Z n N C C N C n B N N N v $ p S C n C n Z 2 ",
"> X % % % % X & ; # X # # # # % ; & X % % # # X - - X X # # % X & ; # # % # # # # - & X % % # # X > ",
"0 d j s g j a g j g j s s g g i - t h s g s s s s g g g a g s h t = u g g g a g g g g s g g j g d 4 ",
"5 ] ..| | | | | | | | | | | O.!   z X.| | | | | | | | | | | | X.k . W O.| | | | | | | | | | | X.] 5 ",
"5 '  .} { } { } } } } } } } X.E   j X.| } { } { } } } } } } | ..j   E o.} } } } } } } } } } }  .' @ ",
"0 A A A A A A A A A A A A A A b % g A A A A A A A A A A A A A D s % b A A A A A A A A A A A A A A r ",
"q D A A A A A A A A A A A A A n % g F V A A A A A A A A A A A D g % N A A A A A A A A A A A A A D r ",
"8 D A A A A A A A A A A A A A C % g F A A A A A A A A A A A A F j X n D A A A A A A A A A A A A D r ",
"r F D F D D F D D D F D D F F Z . k J D F D D F D D F D D F D U k X B F D D D F D D F D D F D D J r ",
": r r r r r r r r r q r r q r 8 > 0 r q q r r q r r q r r q r r 4 > 0 r r r r q r r q r r q r r q : "
};
